/* XPM */
static char * close_activedown_xpm[] = {
"17 17 190 2",
"  	c None",
". 	c #F6FAFE",
"+ 	c #EFF4F7",
"@ 	c #E9EDEF",
"# 	c #E6EAEC",
"$ 	c #E4E7E9",
"% 	c #DFE2E4",
"& 	c #D5D8D9",
"* 	c #C1C3C4",
"= 	c #B6B8B9",
"- 	c #B2B4B5",
"; 	c #B4B5B6",
"> 	c #B3B5B5",
", 	c #B8B9BA",
"' 	c #C0C2C3",
") 	c #C2C4C5",
"! 	c #CACCCD",
"~ 	c #D4D7D8",
"{ 	c #E1E4E6",
"] 	c #E7EBED",
"^ 	c #E2E6E9",
"/ 	c #DCDFE2",
"( 	c #D1D4D6",
"_ 	c #B6B7B8",
": 	c #999999",
"< 	c #979797",
"[ 	c #6B6B70",
"} 	c #53525E",
"| 	c #3A3C39",
"1 	c #525355",
"2 	c #777984",
"3 	c #AAABAC",
"4 	c #BEC0C2",
"5 	c #C3C5C7",
"6 	c #BFC1C2",
"7 	c #D2D5D7",
"8 	c #DEE2E4",
"9 	c #DCDFE1",
"0 	c #D0D2D4",
"a 	c #B0B1B1",
"b 	c #9C9C9C",
"c 	c #59575A",
"d 	c #403C33",
"e 	c #685E54",
"f 	c #827273",
"g 	c #5E4F52",
"h 	c #4B4243",
"i 	c #6D6C73",
"j 	c #B1B2B3",
"k 	c #C3C5C6",
"l 	c #C8C9CA",
"m 	c #C9CBCC",
"n 	c #D3D5D7",
"o 	c #D5D8DB",
"p 	c #C1C2C4",
"q 	c #A1A1A1",
"r 	c #9A9A9A",
"s 	c #6D6D6D",
"t 	c #49334A",
"u 	c #EBF137",
"v 	c #C5B73A",
"w 	c #906A5D",
"x 	c #CBB93B",
"y 	c #E6DF5B",
"z 	c #47392E",
"A 	c #999786",
"B 	c #BFBFC0",
"C 	c #C4C5C6",
"D 	c #C7C8CA",
"E 	c #CDCED1",
"F 	c #CFD2D4",
"G 	c #BEC0C1",
"H 	c #9B9B9B",
"I 	c #4C4A4B",
"J 	c #60625F",
"K 	c #D4B12F",
"L 	c #FDE044",
"M 	c #F2D843",
"N 	c #FFE040",
"O 	c #D3B32A",
"P 	c #4D503F",
"Q 	c #687264",
"R 	c #C5C5C5",
"S 	c #C7C8C8",
"T 	c #C5C6C7",
"U 	c #CBCDCF",
"V 	c #C8CBCD",
"W 	c #BCBEBF",
"X 	c #A4A4A4",
"Y 	c #A0A0A0",
"Z 	c #474747",
"` 	c #7B7670",
" .	c #7E6376",
"..	c #D4B735",
"+.	c #F3E638",
"@.	c #D8AE26",
"#.	c #6C4E68",
"$.	c #59506F",
"%.	c #4F5D5E",
"&.	c #D2D2D2",
"*.	c #CDCDCD",
"=.	c #C7C8C9",
"-.	c #C7C9CA",
";.	c #C2C4C6",
">.	c #BABBBC",
",.	c #A5A5A5",
"'.	c #A3A3A3",
").	c #525152",
"!.	c #5A5559",
"~.	c #D7B925",
"{.	c #F3E24C",
"].	c #D6BB26",
"^.	c #F9E04F",
"/.	c #D2B12E",
"(.	c #413B45",
"_.	c #747665",
":.	c #DADADA",
"<.	c #D7D7D7",
"[.	c #C9CACB",
"}.	c #BBBDBF",
"|.	c #B9BABB",
"1.	c #AAAAAA",
"2.	c #808082",
"3.	c #3E3A39",
"4.	c #F8E44D",
"5.	c #D6B83E",
"6.	c #645444",
"7.	c #D5B723",
"8.	c #E8DB4E",
"9.	c #463929",
"0.	c #AEADAE",
"a.	c #DFDFDF",
"b.	c #D8D8D8",
"c.	c #C8C9C9",
"d.	c #BFC0C2",
"e.	c #B5B7B7",
"f.	c #B7B9B9",
"g.	c #B8B8B8",
"h.	c #AEAEAE",
"i.	c #A6A6A6",
"j.	c #6E736F",
"k.	c #3D3835",
"l.	c #4D4A39",
"m.	c #5E5246",
"n.	c #474337",
"o.	c #3B3623",
"p.	c #898D96",
"q.	c #CCCCCC",
"r.	c #C4C5C5",
"s.	c #BDBEBE",
"t.	c #AEB0B0",
"u.	c #B0B2B2",
"v.	c #BABBBB",
"w.	c #BCBCBC",
"x.	c #BABABA",
"y.	c #BEBEBE",
"z.	c #93909D",
"A.	c #6B6862",
"B.	c #535955",
"C.	c #737082",
"D.	c #A4A1A6",
"E.	c #CBCBCB",
"F.	c #E1E1E1",
"G.	c #CFD0D0",
"H.	c #B8B9B9",
"I.	c #A8A9AA",
"J.	c #A9AAAB",
"K.	c #AEAFAF",
"L.	c #C4C4C4",
"M.	c #D9D9D9",
"N.	c #D6D6D6",
"O.	c #DDDDDD",
"P.	c #D0D0D0",
"Q.	c #B7B8B8",
"R.	c #AFAFB0",
"S.	c #ADADAE",
"T.	c #A1A2A3",
"U.	c #A2A3A4",
"V.	c #A6A7A8",
"W.	c #ACADAE",
"X.	c #B6B6B7",
"Y.	c #C2C2C3",
"Z.	c #C6C7C7",
"`.	c #C9CACA",
" +	c #C0C0C1",
".+	c #ABACAD",
"++	c #A3A4A5",
"@+	c #9B9B9C",
"#+	c #959595",
"$+	c #333333",
". . . . . . . . . . . . . . . . . ",
"+ + + + + + + + + + + + + + + + + ",
"@ # $ % & * = - ; > , ' ) ! ~ { ] ",
"^ / ( _ : < [ } | 1 2 3 4 5 6 7 8 ",
"9 0 a b < c d e f g h i j k l m n ",
"o p q r s t u v w x y z A B C D E ",
"F G q H I J K L M N O P Q R S T U ",
"V W X Y Z `  ...+.@.#.$.%.&.*.=.-.",
";.>.,.'.).!.~.{.].^./.(._.:.<.[.5 ",
"}.|.1.X 2.3.4.5.6.7.8.9.0.a.b.c.d.",
"e.f.g.h.i.j.k.l.m.n.o.p.q.a.b.r.s.",
"t.u.v.w.x.y.z.A.B.C.D.E.a.F.G.H.u.",
"I.J.K.w.L.E.&.M.N.N.O.F.F.P.Q.R.S.",
"T.T.U.V.W.X.s.Y.Z.`.Z. +; .+V.++U.",
"@+@+@+@+@+@+@+@+@+@+@+@+@+@+@+@+@+",
"#+#+#+#+#+#+#+#+#+#+#+#+#+#+#+#+#+",
"$+$+$+$+$+$+$+$+$+$+$+$+$+$+$+$+$+"};
