/* XPM */
static char * close_activeup_xpm[] = {
"17 17 205 2",
"  	c None",
". 	c #F5F5F5",
"+ 	c #F4F4F4",
"@ 	c #F6F6F6",
"# 	c #F8F8F8",
"$ 	c #F6F8EA",
"% 	c #FDFFFE",
"& 	c #FCFEFD",
"* 	c #F6FBF5",
"= 	c #F8FCFF",
"- 	c #F8F9FE",
"; 	c #F9F9F9",
"> 	c #FAFAFA",
", 	c #F7F7F7",
"' 	c #F2F2F2",
") 	c #F0F0F0",
"! 	c #F3F3F3",
"~ 	c #EBEBEB",
"{ 	c #EDEDED",
"] 	c #F7EDEB",
"^ 	c #F2E8F3",
"/ 	c #ECE7EB",
"( 	c #E6E4E9",
"_ 	c #DBD7EE",
": 	c #ECE9F2",
"< 	c #ECE7E1",
"[ 	c #F4EAF5",
"} 	c #EEEEEE",
"| 	c #EAEAEA",
"1 	c #E9E9E9",
"2 	c #E7E7E7",
"3 	c #E8E8E8",
"4 	c #ECECEC",
"5 	c #E1D8DB",
"6 	c #CAC6BB",
"7 	c #ABABA1",
"8 	c #9E9E9C",
"9 	c #BDBEB6",
"0 	c #C5C8B7",
"a 	c #CCCCC0",
"b 	c #E4E4DA",
"c 	c #E4E4E4",
"d 	c #E6E6E6",
"e 	c #EFEFEF",
"f 	c #CECECE",
"g 	c #979C95",
"h 	c #65656F",
"i 	c #545460",
"j 	c #3A3C39",
"k 	c #525355",
"l 	c #6F737C",
"m 	c #B2BABC",
"n 	c #BDC9BD",
"o 	c #DADADA",
"p 	c #DFDFDF",
"q 	c #E3E3E3",
"r 	c #CFCFCF",
"s 	c #E2E2E2",
"t 	c #D0D0D0",
"u 	c #989898",
"v 	c #5A585B",
"w 	c #403C33",
"x 	c #685E54",
"y 	c #827273",
"z 	c #5E4F52",
"A 	c #4B4243",
"B 	c #6D6D75",
"C 	c #B7BCD0",
"D 	c #BFBFBF",
"E 	c #C6C6C6",
"F 	c #C5C5C5",
"G 	c #C2C2C2",
"H 	c #DDDDDD",
"I 	c #E0E0E0",
"J 	c #B6B6B6",
"K 	c #6A6A6A",
"L 	c #49334A",
"M 	c #EBF137",
"N 	c #C5B73A",
"O 	c #906A5D",
"P 	c #CBB93B",
"Q 	c #E6DF5B",
"R 	c #47392E",
"S 	c #989380",
"T 	c #C4C4C4",
"U 	c #B5B5B5",
"V 	c #BEBEBE",
"W 	c #C1C1C1",
"X 	c #D8D8D8",
"Y 	c #CDCDCD",
"Z 	c #A6A6A6",
"` 	c #4B4B4B",
" .	c #60625F",
"..	c #D4B12F",
"+.	c #FDE044",
"@.	c #F2D843",
"#.	c #FFE040",
"$.	c #D3B32A",
"%.	c #4D503F",
"&.	c #687363",
"*.	c #D5D5D5",
"=.	c #969696",
"-.	c #D2D2D2",
";.	c #D6D6D6",
">.	c #C3C3C3",
",.	c #A5A5A5",
"'.	c #474747",
").	c #7B7670",
"!.	c #7E6376",
"~.	c #D4B735",
"{.	c #F3E638",
"].	c #D8AE26",
"^.	c #6C4E68",
"/.	c #59506F",
"(.	c #4F5D5E",
"_.	c #D9D9D9",
":.	c #848484",
"<.	c #CCCCCC",
"[.	c #BBBBBB",
"}.	c #525252",
"|.	c #5A5559",
"1.	c #D7B925",
"2.	c #F3E24C",
"3.	c #D6BB26",
"4.	c #F9E04F",
"5.	c #D2B12E",
"6.	c #413B45",
"7.	c #757761",
"8.	c #7B7B7B",
"9.	c #ABABAB",
"0.	c #B1B1B1",
"a.	c #808080",
"b.	c #3E3A39",
"c.	c #F8E44D",
"d.	c #D6B83E",
"e.	c #645444",
"f.	c #D5B723",
"g.	c #E8DB4E",
"h.	c #463929",
"i.	c #AEACB1",
"j.	c #BABABA",
"k.	c #7C7C7C",
"l.	c #A7A7A7",
"m.	c #B8B8B8",
"n.	c #B7B7B7",
"o.	c #A0A0A0",
"p.	c #707674",
"q.	c #3D3835",
"r.	c #4D4A39",
"s.	c #5E5246",
"t.	c #474337",
"u.	c #3B3623",
"v.	c #8D919C",
"w.	c #C5CFDB",
"x.	c #888888",
"y.	c #828282",
"z.	c #A4A4A4",
"A.	c #B0B0B0",
"B.	c #AEAEAE",
"C.	c #A8A8A8",
"D.	c #929292",
"E.	c #979797",
"F.	c #A9B5A9",
"G.	c #9790A2",
"H.	c #6B6B63",
"I.	c #535955",
"J.	c #757389",
"K.	c #ABA6AD",
"L.	c #CCD2C8",
"M.	c #95A193",
"N.	c #717171",
"O.	c #8E8E8E",
"P.	c #A9A9A9",
"Q.	c #8F8F8F",
"R.	c #848C7F",
"S.	c #B29AA7",
"T.	c #D4C7D1",
"U.	c #D0DEE7",
"V.	c #D5D2D9",
"W.	c #C5B8B0",
"X.	c #857C81",
"Y.	c #676662",
"Z.	c #999999",
"`.	c #A3A3A3",
" +	c #9F9F9F",
".+	c #9A9A9A",
"++	c #7B7E77",
"@+	c #6E6E76",
"#+	c #555B4D",
"$+	c #525B56",
"%+	c #505E5E",
"&+	c #606456",
"*+	c #726E6B",
"=+	c #888694",
"-+	c #939393",
";+	c #A1A1A1",
">+	c #A2A2A2",
",+	c #9E9E9E",
"'+	c #9D9D9D",
")+	c #9C9C9C",
"!+	c #898989",
"~+	c #818181",
"{+	c #9B9B9B",
"]+	c #959595",
"^+	c #333333",
". . + @ # $ % & * = - ; > , ' ) ! ",
"~ ~ { + + ] ^ / ( _ : < [ ~ } | 1 ",
"2 3 } . 4 5 6 7 8 9 0 a b c 1 1 | ",
"d 1 e ~ f g h i j k l m n o p q r ",
"s 2 1 t u v w x y z A B C D E F G ",
"H q I J K L M N O P Q R S T U V W ",
"X q Y Z `  ...+.@.#.$.%.&.*.=.G F ",
"-.;.>.,.'.).!.~.{.].^./.(._.:.U V ",
"<.r [.,.}.|.1.2.3.4.5.6.7._.8.9.J ",
"T E 0.Z a.b.c.d.e.f.g.h.i.j.k.l.0.",
"m.n.l.o.Z p.q.r.s.t.u.v.w.x.y.z.A.",
"B.0.C.D.E.F.G.H.I.J.K.L.M.N.O.,.9.",
"l.9.P.Q.:.R.S.T.U.V.W.X.Y.a.Z.Z C.",
"`. +o..+D.++@+#+$+%+&+*+=+-+u ;+>+",
",+'+)+.+Z.Q.!+~+k.k.~+!+Q.u )+{+,+",
",+'+'+)+{+.+u ]+-+-+]+u .+.+,+o.Z.",
"^+^+^+^+^+^+^+^+^+^+^+^+^+^+^+^+^+"};
