/* XPM */
static char * options_inactive_xpm[] = {
"17 17 127 2",
"  	c None",
". 	c #B6B6B6",
"+ 	c #B9B9B9",
"@ 	c #B8B8B8",
"# 	c #B5B5B5",
"$ 	c #B7B7B7",
"% 	c #959595",
"& 	c #969696",
"* 	c #979797",
"= 	c #9C9C9C",
"- 	c #A6A6A6",
"; 	c #AFAFAF",
"> 	c #B1B1B1",
", 	c #ACACAC",
"' 	c #A5A5A5",
") 	c #9E9E9E",
"! 	c #989898",
"~ 	c #949494",
"{ 	c #939393",
"] 	c #9F9F9F",
"^ 	c #BFBFBF",
"/ 	c #C9C9C9",
"( 	c #CDCDCD",
"_ 	c #C4C4C4",
": 	c #BDBDBD",
"< 	c #B3B3B3",
"[ 	c #909090",
"} 	c #999999",
"| 	c #ABABAB",
"1 	c #BEBEBE",
"2 	c #C8C8C8",
"3 	c #BCBCBC",
"4 	c #BABABA",
"5 	c #A4A4A4",
"6 	c #9A9A9A",
"7 	c #929292",
"8 	c #8E8E8E",
"9 	c #C3C3C3",
"0 	c #C6C6C6",
"a 	c #8F8F8F",
"b 	c #575757",
"c 	c #353535",
"d 	c #383838",
"e 	c #5B5B5B",
"f 	c #8B8B8B",
"g 	c #888888",
"h 	c #898989",
"i 	c #8C8C8C",
"j 	c #404040",
"k 	c #303030",
"l 	c #2C2C2C",
"m 	c #2D2D2D",
"n 	c #4B4B4B",
"o 	c #8D8D8D",
"p 	c #808080",
"q 	c #848484",
"r 	c #8A8A8A",
"s 	c #858585",
"t 	c #AEAEAE",
"u 	c #585858",
"v 	c #2F2F2F",
"w 	c #363636",
"x 	c #343434",
"y 	c #313131",
"z 	c #686868",
"A 	c #707070",
"B 	c #777777",
"C 	c #828282",
"D 	c #A8A8A8",
"E 	c #464646",
"F 	c #A0A0A0",
"G 	c #A3A3A3",
"H 	c #5D5D5D",
"I 	c #AAAAAA",
"J 	c #6E6E6E",
"K 	c #7F7F7F",
"L 	c #818181",
"M 	c #B2B2B2",
"N 	c #3C3C3C",
"O 	c #7B7B7B",
"P 	c #A1A1A1",
"Q 	c #505050",
"R 	c #B0B0B0",
"S 	c #4F4F4F",
"T 	c #636363",
"U 	c #797979",
"V 	c #7A7A7A",
"W 	c #838383",
"X 	c #6A6A6A",
"Y 	c #515151",
"Z 	c #7E7E7E",
"` 	c #5E5E5E",
" .	c #737373",
"..	c #757575",
"+.	c #787878",
"@.	c #5A5A5A",
"#.	c #676767",
"$.	c #767676",
"%.	c #747474",
"&.	c #6B6B6B",
"*.	c #9D9D9D",
"=.	c #6F6F6F",
"-.	c #6D6D6D",
";.	c #717171",
">.	c #646464",
",.	c #666666",
"'.	c #5F5F5F",
").	c #868686",
"!.	c #6C6C6C",
"~.	c #696969",
"{.	c #616161",
"].	c #565656",
"^.	c #424242",
"/.	c #595959",
"(.	c #656565",
"_.	c #3E3E3E",
":.	c #3A3A3A",
"<.	c #323232",
"[.	c #373737",
"}.	c #444444",
"|.	c #626262",
"1.	c #545454",
"2.	c #4D4D4D",
"3.	c #494949",
"4.	c #474747",
"5.	c #606060",
"6.	c #333333",
". . + @ # # . $ $ . $ . . $ $ . . ",
"% & & * = - ; @ # > , ' ) ! * ~ ~ ",
"~ { & ] ; ^ / ( / _ : < - = * { { ",
"[ [ } | 1 2 / 3 4 + $ ; 5 6 & 7 7 ",
"8 { * $ 9 0 a b c d e ~ 5 ~ f 8 g ",
"h i - $ : % j k l m k n ! o p q o ",
"r s ] t + u k v v w x y z * A B g ",
"p C * D $ E F G ] ] 5 = H I u J K ",
"L s a ! M N O P G D = O Q R S T U ",
"U V h W F X u O P G U Y Z i E `  .",
"U ..+.B i 8 @.#.$.+.%.&.*.z E T =.",
"%.$.-.;.>.g & ..,.'.).] A x Q ,.J ",
"=.!.;.~.{.S J 8 G I r ].d ^./.X !.",
"z =.(.&.T ].Y _.:.c <.[.}.].|.z ~.",
"X X >.X (.>.1.2.3.4.3.Q /.5.T ,.#.",
">.'.(.'.H '.` ` H ` T T T T T (.'.",
"6.6.6.6.6.6.6.6.6.6.6.6.6.6.6.6.6."};
