/* XPM */
static char * options_activeup_xpm[] = {
"17 17 268 2",
"  	c None",
". 	c #99AFD6",
"+ 	c #99ADD2",
"@ 	c #98ABD6",
"# 	c #95ACDE",
"$ 	c #91A7D8",
"% 	c #96A8D6",
"& 	c #9BACD8",
"* 	c #98AAD8",
"= 	c #98AADA",
"- 	c #94A9D8",
"; 	c #94ABD7",
"> 	c #95ACD8",
", 	c #93ABD9",
"' 	c #92AAD8",
") 	c #96AEDC",
"! 	c #96B1E0",
"~ 	c #6385C5",
"{ 	c #6589C5",
"] 	c #6C8ECE",
"^ 	c #6B8FC9",
"/ 	c #7093CB",
"( 	c #7F9FD2",
"_ 	c #8CABDA",
": 	c #8FAEDC",
"< 	c #90AFDE",
"[ 	c #8EACDE",
"} 	c #88A8DB",
"| 	c #7B9ED6",
"1 	c #7195CF",
"2 	c #6990CB",
"3 	c #5F87C4",
"4 	c #5E87C5",
"5 	c #668FCD",
"6 	c #608DC8",
"7 	c #5E8CC0",
"8 	c #5D8AC1",
"9 	c #7C94C4",
"0 	c #8BA2CE",
"a 	c #9CB2D7",
"b 	c #ABBEDE",
"c 	c #B6C7E5",
"d 	c #B9C9EA",
"e 	c #ACBFE0",
"f 	c #9DAFD3",
"g 	c #8FA5D7",
"h 	c #7D96CC",
"i 	c #7491C9",
"j 	c #6D8DC8",
"k 	c #6286C4",
"l 	c #5A88C4",
"m 	c #5E8DC5",
"n 	c #6693CE",
"o 	c #849BCF",
"p 	c #9CB2E1",
"q 	c #B0C3EB",
"r 	c #B4C4E5",
"s 	c #A9B8D5",
"t 	c #99A8C5",
"u 	c #97A6C7",
"v 	c #A2B0D5",
"w 	c #90A3DB",
"x 	c #8197D1",
"y 	c #6C8ACA",
"z 	c #698CD0",
"A 	c #658BD2",
"B 	c #5D83CA",
"C 	c #5D86C8",
"D 	c #5E86C4",
"E 	c #6E91D5",
"F 	c #91AEDA",
"G 	c #A8C4EB",
"H 	c #A2BBD9",
"I 	c #768CA1",
"J 	c #435869",
"K 	c #213647",
"L 	c #263A52",
"M 	c #445873",
"N 	c #748DB6",
"O 	c #809FCD",
"P 	c #6388BC",
"Q 	c #517EB7",
"R 	c #5788C3",
"S 	c #5283BE",
"T 	c #577FB3",
"U 	c #5C80B4",
"V 	c #7998D1",
"W 	c #99ABDB",
"X 	c #A4B3DC",
"Y 	c #7784A4",
"Z 	c #333E54",
"` 	c #1C2536",
" .	c #20283B",
"..	c #212940",
"+.	c #222945",
"@.	c #334367",
"#.	c #778DB6",
"$.	c #6C88B7",
"%.	c #5275AB",
"&.	c #5881B9",
"*.	c #567FB7",
"=.	c #557FB9",
"-.	c #557EB4",
";.	c #7498D2",
">.	c #8BA6D1",
",.	c #9FB1DF",
"'.	c #495175",
").	c #28263C",
"!.	c #2B2A38",
"~.	c #2B333E",
"{.	c #1E2E3E",
"].	c #243352",
"^.	c #402E3A",
"/.	c #59587A",
"(.	c #7F95C4",
"_.	c #426992",
":.	c #4972A0",
"<.	c #5679B9",
"[.	c #527CB6",
"}.	c #527BB1",
"|.	c #6F93CD",
"1.	c #8FA2C2",
"2.	c #91A2CE",
"3.	c #56632B",
"4.	c #D7D727",
"5.	c #EEDD1D",
"6.	c #E5D01B",
"7.	c #EEDB1C",
"8.	c #F1D623",
"9.	c #C5D33E",
"0.	c #637539",
"a.	c #8FA7BF",
"b.	c #335585",
"c.	c #406697",
"d.	c #5175B1",
"e.	c #4D77B1",
"f.	c #4E77AD",
"g.	c #668AC4",
"h.	c #6786C7",
"i.	c #8FABDD",
"j.	c #2C3A45",
"k.	c #847C33",
"l.	c #F3D829",
"m.	c #FFDF00",
"n.	c #FFDD0C",
"o.	c #FFDA1B",
"p.	c #788446",
"q.	c #3F4A50",
"r.	c #8C9DD1",
"s.	c #2C4975",
"t.	c #3F6184",
"u.	c #4F73A7",
"v.	c #4974AB",
"w.	c #4972A6",
"x.	c #5A7EB8",
"y.	c #5688AD",
"z.	c #7699C1",
"A.	c #4A6288",
"B.	c #202B3F",
"C.	c #807639",
"D.	c #F1DB26",
"E.	c #F9E335",
"F.	c #7B6A32",
"G.	c #3F475E",
"H.	c #6B77A1",
"I.	c #7788B4",
"J.	c #26415C",
"K.	c #3A5B7A",
"L.	c #486BA3",
"M.	c #4570A7",
"N.	c #446DA1",
"O.	c #4E73AA",
"P.	c #4A69AA",
"Q.	c #667DB3",
"R.	c #738BB1",
"S.	c #3C5075",
"T.	c #404447",
"U.	c #7B732A",
"V.	c #73752A",
"W.	c #475464",
"X.	c #5B6C7C",
"Y.	c #8294AC",
"Z.	c #4A5D7D",
"`.	c #2A4266",
" +	c #3D5C88",
".+	c #42679C",
"++	c #426DA4",
"@+	c #416A9E",
"#+	c #456AA1",
"$+	c #4863A8",
"%+	c #395E8B",
"&+	c #5D80AA",
"*+	c #7D94C0",
"=+	c #5C6689",
"-+	c #515D77",
";+	c #51637B",
">+	c #668192",
",+	c #8495C1",
"'+	c #55678D",
")+	c #23355D",
"!+	c #2E4674",
"~+	c #3E5F92",
"{+	c #436D9F",
"]+	c #3E69A0",
"^+	c #3E689A",
"/+	c #3F649B",
"(+	c #3C6789",
"_+	c #275590",
":+	c #245172",
"<+	c #4D6B85",
"[+	c #7080BE",
"}+	c #8AA1D3",
"|+	c #87A5BD",
"1+	c #6C80B3",
"2+	c #435873",
"3+	c #1E324A",
"4+	c #263C54",
"5+	c #38567A",
"6+	c #355D90",
"7+	c #3B64A2",
"8+	c #3C679C",
"9+	c #3D6799",
"0+	c #3C6198",
"a+	c #3B628D",
"b+	c #3D6088",
"c+	c #35527A",
"d+	c #2F4471",
"e+	c #283A62",
"f+	c #192E43",
"g+	c #203344",
"h+	c #1C294C",
"i+	c #1F3453",
"j+	c #2A3C64",
"k+	c #354A75",
"l+	c #3C5C85",
"m+	c #386493",
"n+	c #36639E",
"o+	c #3C6297",
"p+	c #3D649B",
"q+	c #33609A",
"r+	c #3A5E96",
"s+	c #405F98",
"t+	c #385791",
"u+	c #335688",
"v+	c #34547D",
"w+	c #334D72",
"x+	c #304B70",
"y+	c #2D4B6E",
"z+	c #2D5284",
"A+	c #325788",
"B+	c #375C8F",
"C+	c #3B6094",
"D+	c #3B5F95",
"E+	c #3B5F97",
"F+	c #3C6094",
"G+	c #385B8D",
"H+	c #395C8F",
"I+	c #385C8F",
"J+	c #375D8D",
"K+	c #375E8C",
"L+	c #385D8D",
"M+	c #385B90",
"N+	c #36598F",
"O+	c #385B8E",
"P+	c #385D8F",
"Q+	c #385C8E",
"R+	c #395D8F",
"S+	c #333333",
". + @ # $ % & & * = - ; > , ' ) ! ",
"~ { ] ^ / ( _ : < [ } | 1 2 3 4 5 ",
"6 7 8 9 0 a b c d e f g h i j k k ",
"l m n o p q r s t u v w x y z A B ",
"C D E F G H I J K L M N O P Q R S ",
"T U V W X Y Z `  ...+.@.#.$.%.&.*.",
"=.-.;.>.,.'.).!.~.{.].^./.(._.:.<.",
"[.}.|.1.2.3.4.5.6.7.8.9.0.a.b.c.d.",
"e.f.g.h.i.j.k.l.m.n.o.p.q.r.s.t.u.",
"v.w.x.y.z.A.B.C.D.E.F.G.H.I.J.K.L.",
"M.N.O.P.Q.R.S.T.U.V.W.X.Y.Z.`. +.+",
"++@+#+$+%+&+*+=+-+;+>+,+'+)+!+~+{+",
"]+^+/+(+_+:+<+[+}+|+1+2+3+4+5+6+7+",
"8+9+0+a+b+c+d+e+f+g+h+i+j+k+l+m+n+",
"o+p+q+r+s+t+u+v+w+x+y+z+A+B+C+D+E+",
"F+G+H+I+J+K+L+M+N+O+P+G+Q+H+R+H+H+",
"S+S+S+S+S+S+S+S+S+S+S+S+S+S+S+S+S+"};
