/* XPM */
static char * options_activedown_xpm[] = {
"17 17 230 2",
"  	c None",
". 	c #98ABD6",
"+ 	c #95ACDE",
"@ 	c #91A7D8",
"# 	c #96A8D6",
"$ 	c #9BACD8",
"% 	c #98AAD8",
"& 	c #98AADA",
"* 	c #94A9D8",
"= 	c #94ABD7",
"- 	c #95ACD8",
"; 	c #93ABD9",
"> 	c #92AAD8",
", 	c #96AEDC",
"' 	c #96B1E0",
") 	c #91ACDB",
"! 	c #90ABDA",
"~ 	c #6382C6",
"{ 	c #6281C5",
"] 	c #6180C2",
"^ 	c #6180C4",
"/ 	c #5B7CBC",
"( 	c #5878B5",
"_ 	c #506DA7",
": 	c #405A8B",
"< 	c #364F78",
"[ 	c #334973",
"} 	c #344D71",
"| 	c #324B70",
"1 	c #395080",
"2 	c #415B8F",
"3 	c #456395",
"4 	c #4F70A6",
"5 	c #5576B2",
"6 	c #5D7DBF",
"7 	c #6080C1",
"8 	c #597ABB",
"9 	c #4E70AC",
"0 	c #3C5982",
"a 	c #20364E",
"b 	c #1E324A",
"c 	c #1D3149",
"d 	c #1E3249",
"e 	c #263B56",
"f 	c #2D4061",
"g 	c #314A6C",
"h 	c #3D5C8A",
"i 	c #4266A2",
"j 	c #476F9B",
"k 	c #5677B5",
"l 	c #5175AF",
"m 	c #375785",
"n 	c #243D5E",
"o 	c #1E324E",
"p 	c #213646",
"q 	c #263A51",
"r 	c #3B4F69",
"s 	c #3C5374",
"t 	c #3A557C",
"u 	c #46699E",
"v 	c #5371B3",
"w 	c #5174B0",
"x 	c #5C7DBD",
"y 	c #5678B7",
"z 	c #47689E",
"A 	c #2B4568",
"B 	c #213A58",
"C 	c #1E324C",
"D 	c #1C2536",
"E 	c #20283B",
"F 	c #212940",
"G 	c #222945",
"H 	c #334368",
"I 	c #465D7F",
"J 	c #5B74A6",
"K 	c #5978B5",
"L 	c #5477B2",
"M 	c #587AB9",
"N 	c #5376B3",
"O 	c #47679C",
"P 	c #2A4667",
"Q 	c #243B58",
"R 	c #23374E",
"S 	c #28263C",
"T 	c #2B2A38",
"U 	c #2B333E",
"V 	c #1E2E3E",
"W 	c #243352",
"X 	c #402E3A",
"Y 	c #4F5678",
"Z 	c #6D8BB2",
"` 	c #6991BA",
" .	c #597CB7",
"..	c #5577B5",
"+.	c #5074B0",
"@.	c #496BA0",
"#.	c #304C71",
"$.	c #2A4260",
"%.	c #2B3F51",
"&.	c #54612C",
"*.	c #D7D727",
"=.	c #EEDD1D",
"-.	c #E5D01B",
";.	c #EEDB1C",
">.	c #F1D623",
",.	c #C5D33E",
"'.	c #5F7239",
").	c #8FA7D4",
"!.	c #829CD2",
"~.	c #6487BF",
"{.	c #5174B1",
"].	c #4E71AD",
"^.	c #496BA3",
"/.	c #324E74",
"(.	c #2F4967",
"_.	c #33485C",
":.	c #2E3C44",
"<.	c #847C33",
"[.	c #F3D829",
"}.	c #FFDF00",
"|.	c #FFDD0C",
"1.	c #FFDA1B",
"2.	c #788446",
"3.	c #3F4A4E",
"4.	c #A1B3DC",
"5.	c #98ADD4",
"6.	c #7090C7",
"7.	c #4A6FA9",
"8.	c #4C6FAA",
"9.	c #395880",
"0.	c #314B6B",
"a.	c #324761",
"b.	c #4B5E7F",
"c.	c #202B3F",
"d.	c #807639",
"e.	c #F1DB26",
"f.	c #F9E335",
"g.	c #7B6A32",
"h.	c #3F475E",
"i.	c #626D95",
"j.	c #ABBEE7",
"k.	c #98B0DB",
"l.	c #7091C9",
"m.	c #466CA5",
"n.	c #4C73AB",
"o.	c #4D74A9",
"p.	c #405F8A",
"q.	c #364E6D",
"r.	c #4F6486",
"s.	c #3B4F74",
"t.	c #404447",
"u.	c #7B732A",
"v.	c #73752A",
"w.	c #475464",
"x.	c #596A7A",
"y.	c #8999B9",
"z.	c #ACBEE6",
"A.	c #9BB0DD",
"B.	c #6A8BC2",
"C.	c #4369A1",
"D.	c #456DA5",
"E.	c #527CB7",
"F.	c #577DB6",
"G.	c #5976A7",
"H.	c #637DAA",
"I.	c #7088B1",
"J.	c #546182",
"K.	c #4F5B75",
"L.	c #4F6178",
"M.	c #5C7586",
"N.	c #8499B6",
"O.	c #A9BFE2",
"P.	c #ACC3EB",
"Q.	c #87A4D2",
"R.	c #5479B6",
"S.	c #3F669D",
"T.	c #446AA3",
"U.	c #4A70AB",
"V.	c #5D81C1",
"W.	c #6B89C9",
"X.	c #8096D0",
"Y.	c #90A3DB",
"Z.	c #A3B1D6",
"`.	c #9CACCF",
" +	c #9DADCC",
".+	c #AAB9D9",
"++	c #B2C3E7",
"@+	c #B0C3EB",
"#+	c #8BA5D4",
"$+	c #5C7CB2",
"%+	c #4870A8",
"&+	c #3C639A",
"*+	c #40679E",
"=+	c #4268A0",
"-+	c #466CA4",
";+	c #4F73AA",
">+	c #5E7EB5",
",+	c #6E8BBE",
"'+	c #7993BF",
")+	c #819CC6",
"!+	c #88A1CC",
"~+	c #839DC7",
"{+	c #7592BF",
"]+	c #5F80B1",
"^+	c #4D71A5",
"/+	c #43699E",
"(+	c #3D659B",
"_+	c #386196",
":+	c #3A6297",
"<+	c #3D649B",
"[+	c #3B6399",
"}+	c #3A6298",
"|+	c #396197",
"1+	c #386096",
"2+	c #395E91",
"3+	c #375B8D",
"4+	c #355B89",
"5+	c #375E8E",
"6+	c #385D8E",
"7+	c #3B6097",
"8+	c #3B6197",
"9+	c #375C8F",
"0+	c #36598B",
"a+	c #375A8B",
"b+	c #385B8C",
"c+	c #385B8D",
"d+	c #395C90",
"e+	c #3A5E93",
"f+	c #3A5F95",
"g+	c #333333",
". + @ # $ $ % & * = - ; > , ' ) ! ",
"~ ~ ~ { ] ] ] ] ] { ~ ~ ~ ~ ~ ~ ~ ",
"~ ^ / ( _ : < [ } | 1 2 3 4 5 6 ~ ",
"7 8 9 0 a b b c d e f g h i j k 7 ",
"/ l m n o b b b p q r s t u v w x ",
"y z A B C b b D E F G H I J K L M ",
"N O P Q R b S T U V W X Y Z `  ...",
"+.@.#.$.%.&.*.=.-.;.>.,.'.).!.~.{.",
"].^./.(._.:.<.[.}.|.1.2.3.4.5.6.].",
"7.8.9.0.a.b.c.d.e.f.g.h.i.j.k.l.7.",
"m.n.o.p.q.r.s.t.u.v.w.x.y.z.A.B.m.",
"C.D.E.F.G.H.I.J.K.L.M.N.O.P.Q.R.C.",
"S.T.U.V.W.X.Y.Z.`. +.+++@+#+$+%+S.",
"&+*+=+-+;+>+,+'+)+!+~+{+]+^+/+(+&+",
"_+:+_+<+<+(+<+<+<+<+<+[+}+}+|+1+1+",
"2+3+4+5+6+7+8+9+3+0+a+b+c+c+d+e+f+",
"g+g+g+g+g+g+g+g+g+g+g+g+g+g+g+g+g+"};
