/* XPM */
static char * titlert_active_xpm[] = {
"20 17 204 2",
"  	c None",
". 	c #93ACD4",
"+ 	c #94ADD5",
"@ 	c #93ACD5",
"# 	c #95ACD8",
"$ 	c #93AAD6",
"% 	c #9AA4C8",
"& 	c #D1CBCD",
"* 	c #CED8DA",
"= 	c #A0B8DC",
"- 	c #A6ABD3",
"; 	c #CFCCD7",
"> 	c #CDD7E3",
", 	c #AABDE5",
"' 	c #A3A6B9",
") 	c #D3D5E4",
"! 	c #6382C6",
"~ 	c #6886CE",
"{ 	c #6A87CB",
"] 	c #A3B0D0",
"^ 	c #D2CFD6",
"/ 	c #A7B3C9",
"( 	c #6D8DC0",
"_ 	c #99A7CE",
": 	c #D2D4E0",
"< 	c #A6B7D1",
"[ 	c #6281BA",
"} 	c #AFB2C5",
"| 	c #DEE0EF",
"1 	c #6483C4",
"2 	c #6F8EC5",
"3 	c #BBC9D4",
"4 	c #C6C9D8",
"5 	c #8598C2",
"6 	c #7395C5",
"7 	c #B7C8DC",
"8 	c #C5CDD8",
"9 	c #849CC0",
"0 	c #6F93CD",
"a 	c #C9CDD6",
"b 	c #E5E8EF",
"c 	c #6080C1",
"d 	c #6583BF",
"e 	c #7F9BCA",
"f 	c #C2CBC6",
"g 	c #A9B8CD",
"h 	c #6382B8",
"i 	c #7B99BF",
"j 	c #C2CDCF",
"k 	c #A8B5C6",
"l 	c #6281B0",
"m 	c #7E9FCC",
"n 	c #D6DCDC",
"o 	c #E5E9E8",
"p 	c #5C7DBD",
"q 	c #6382B0",
"r 	c #8CA7C4",
"s 	c #C2C3BE",
"t 	c #91ABC6",
"u 	c #5984BB",
"v 	c #8DA5C1",
"w 	c #C4C4C2",
"x 	c #95A6C4",
"y 	c #5F82BC",
"z 	c #97AECD",
"A 	c #D9DFDD",
"B 	c #DCE1DD",
"C 	c #587AB9",
"D 	c #6180AE",
"E 	c #92ADCA",
"F 	c #C4BEC2",
"G 	c #7897B6",
"H 	c #4F81B6",
"I 	c #A0B2CA",
"J 	c #C4BBBC",
"K 	c #8091BD",
"L 	c #5A80C1",
"M 	c #A9B9D0",
"N 	c #D4D8D7",
"O 	c #5577B5",
"P 	c #5A79B0",
"Q 	c #ABADBA",
"R 	c #B9BAB2",
"S 	c #5D85B8",
"T 	c #5177B5",
"U 	c #B0ACBA",
"V 	c #BABABA",
"W 	c #5E89B6",
"X 	c #527AB5",
"Y 	c #C2BDD3",
"Z 	c #D3D3D3",
"` 	c #5174B1",
" .	c #5877AD",
"..	c #AAAEB9",
"+.	c #AFB0AB",
"@.	c #5880B3",
"#.	c #5278B6",
"$.	c #AFADB8",
"%.	c #B3B3B3",
"&.	c #557DAE",
"*.	c #5178B3",
"=.	c #C6C4D2",
"-.	c #CCCCCC",
";.	c #4E71AD",
">.	c #5375A5",
",.	c #A4ABB3",
"'.	c #A9A7AA",
").	c #5479AD",
"!.	c #4F76B1",
"~.	c #AAAAB2",
"{.	c #ABABA9",
"].	c #4F74A8",
"^.	c #4E75B0",
"/.	c #C3C6CB",
"(.	c #C6C6C6",
"_.	c #4A6FA9",
":.	c #4D71A1",
"<.	c #9DA6AD",
"[.	c #A9A4AB",
"}.	c #5276A6",
"|.	c #486FA8",
"1.	c #9FA2AB",
"2.	c #A4A6A3",
"3.	c #5172A5",
"4.	c #4C70AC",
"5.	c #B3BDBE",
"6.	c #C0C0C0",
"7.	c #466CA5",
"8.	c #486E9F",
"9.	c #8D9AA3",
"0.	c #A39EA5",
"a.	c #5576A1",
"b.	c #446BA2",
"c.	c #8F95A5",
"d.	c #9EA09D",
"e.	c #5675A3",
"f.	c #4A6EA8",
"g.	c #A2B0B3",
"h.	c #B7B7B7",
"i.	c #4369A1",
"j.	c #4269A2",
"k.	c #7C899A",
"l.	c #999299",
"m.	c #597A99",
"n.	c #426A9E",
"o.	c #7F859F",
"p.	c #959794",
"q.	c #5C7A9C",
"r.	c #486BA3",
"s.	c #8E9FAF",
"t.	c #B0B0B0",
"u.	c #3F669D",
"v.	c #3F65A4",
"w.	c #697993",
"x.	c #92898C",
"y.	c #5F7F94",
"z.	c #3F679A",
"A.	c #6D7697",
"B.	c #8B8F8E",
"C.	c #627E96",
"D.	c #43669C",
"E.	c #778AAA",
"F.	c #A9A9A9",
"G.	c #3B6399",
"H.	c #3B62A7",
"I.	c #5E6D8E",
"J.	c #908886",
"K.	c #618291",
"L.	c #3C6497",
"M.	c #616892",
"N.	c #878B8A",
"O.	c #658292",
"P.	c #406196",
"Q.	c #6578A2",
"R.	c #A2A2A2",
"S.	c #376094",
"T.	c #376095",
"U.	c #3A6397",
"V.	c #3B6498",
"W.	c #767D87",
"X.	c #738697",
"Y.	c #506A8B",
"Z.	c #496187",
"`.	c #72809A",
" +	c #77838F",
".+	c #536981",
"++	c #4A6698",
"@+	c #8A8E93",
"#+	c #9CA3A9",
"$+	c #375C8D",
"%+	c #827C7C",
"&+	c #7B8188",
"*+	c #566C86",
"=+	c #496081",
"-+	c #76747A",
";+	c #797E84",
">+	c #576B84",
",+	c #48648A",
"'+	c #7F7E7F",
")+	c #8E9397",
"!+	c #333333",
"~+	c #333538",
"{+	c #393F48",
"]+	c #444242",
". . + + + @ @ . # $ % & * = - ; > , ' ) ",
"! ! ! ! ! ! ! ! ~ { ] ^ / ( _ : < [ } | ",
"! ! ! ! ! ! ! ! 1 2 3 4 5 6 7 8 9 0 a b ",
"c c c c c c c c d e f g h i j k l m n o ",
"p p p p p p p p q r s t u v w x y z A B ",
"C C C C C C C C D E F G H I J K L M n N ",
"O O O O O O O O P Q R S T U V W X Y Z Z ",
"` ` ` ` ` ` ` `  ...+.@.#.$.%.&.*.=.-.-.",
";.;.;.;.;.;.;.;.>.,.'.).!.~.{.].^./.(.(.",
"_._._._._._._._.:.<.[.}.|.1.2.3.4.5.6.6.",
"7.7.7.7.7.7.7.7.8.9.0.a.b.c.d.e.f.g.h.h.",
"i.i.i.i.i.i.i.i.j.k.l.m.n.o.p.q.r.s.t.t.",
"u.u.u.u.u.u.u.u.v.w.x.y.z.A.B.C.D.E.F.F.",
"G.G.G.G.G.G.G.G.H.I.J.K.L.M.N.O.P.Q.R.R.",
"S.S.T.T.T.T.T.S.U.V.W.X.Y.Z.`. +.+++@+#+",
"S.S.S.S.S.S.S.S.U.$+%+&+*+=+-+;+>+,+'+)+",
"!+!+!+!+!+!+!+!+!+!+!+!+~+{+]+!+!+!+!+!+"};
