/* XPM */
static char * titlert_inactive_xpm[] = {
"20 17 117 2",
"  	c None",
". 	c #B7B7B7",
"+ 	c #B6B6B6",
"@ 	c #B8B6B9",
"# 	c #B2B0B3",
"$ 	c #BAB8BB",
"% 	c #D7D5D8",
"& 	c #D8D6D9",
"* 	c #C0BEC1",
"= 	c #D6D4D7",
"- 	c #D9D7DA",
"; 	c #C1BFC2",
"> 	c #E3E1E4",
", 	c #949494",
"' 	c #959396",
") 	c #99979A",
"! 	c #B3B1B4",
"~ 	c #D1CFD2",
"{ 	c #B9B7BA",
"] 	c #9A989B",
"^ 	c #B1AFB2",
"/ 	c #D5D3D6",
"( 	c #B6B4B7",
"_ 	c #E1DFE2",
": 	c #909090",
"< 	c #A1A1A1",
"[ 	c #C8C8C8",
"} 	c #CBCBCB",
"| 	c #A0A0A0",
"1 	c #999999",
"2 	c #C7C7C7",
"3 	c #D0D0D0",
"4 	c #9C9C9C",
"5 	c #D6D6D6",
"6 	c #E9E9E9",
"7 	c #8D8D8D",
"8 	c #90928F",
"9 	c #9D9F9C",
"0 	c #C8CAC7",
"a 	c #BABCB9",
"b 	c #8F918E",
"c 	c #A1A3A0",
"d 	c #CCCECB",
"e 	c #B5B7B4",
"f 	c #A8AAA7",
"g 	c #D9DBD8",
"h 	c #E0E2DF",
"i 	c #8A8A8A",
"j 	c #ACACAC",
"k 	c #C3C3C3",
"l 	c #A9A9A9",
"m 	c #8B8B8B",
"n 	c #AEAEAE",
"o 	c #C4C4C4",
"p 	c #A8A8A8",
"q 	c #B5B5B5",
"r 	c #DDDDDD",
"s 	c #DEDEDE",
"t 	c #878787",
"u 	c #888888",
"v 	c #AFAFAF",
"w 	c #C1C1C1",
"x 	c #9E9E9E",
"y 	c #C0C0C0",
"z 	c #9F9F9F",
"A 	c #BBBBBB",
"B 	c #DBDBDB",
"C 	c #D8D8D8",
"D 	c #848484",
"E 	c #B0B0B0",
"F 	c #BABABA",
"G 	c #828282",
"H 	c #B9B9B9",
"I 	c #8F8F8F",
"J 	c #D4D4D4",
"K 	c #D3D3D3",
"L 	c #818181",
"M 	c #808080",
"N 	c #B1B1B1",
"O 	c #858585",
"P 	c #7F7F7F",
"Q 	c #CCCCCC",
"R 	c #7E7E7E",
"S 	c #7D7D7D",
"T 	c #AAAAAA",
"U 	c #ABABAB",
"V 	c #7C7C7C",
"W 	c #C2C2C2",
"X 	c #C5C5C5",
"Y 	c #7A7A7A",
"Z 	c #7B7B7B",
"` 	c #A2A2A2",
" .	c #A5A5A5",
"..	c #BCBCBC",
"+.	c #BFBFBF",
"@.	c #777777",
"#.	c #959595",
"$.	c #9D9D9D",
"%.	c #787878",
"&.	c #B8B8B8",
"*.	c #747474",
"=.	c #737373",
"-.	c #979797",
";.	c #717171",
">.	c #929292",
",.	c #919191",
"'.	c #727272",
").	c #6E6E6E",
"!.	c #6C6C6C",
"~.	c #6B6B6B",
"{.	c #686868",
"].	c #797979",
"^.	c #6D6D6D",
"/.	c #666666",
"(.	c #656565",
"_.	c #606060",
":.	c #333333",
". + . + . + . + @ # $ % & * $ = - ; @ > ",
", , , , , , , , ' ) ! ~ { ] ^ / ( ) ( _ ",
": : : : : : : : , < [ } | 1 2 3 4 1 5 6 ",
"7 7 7 7 7 7 7 7 8 9 0 a b c d e 8 f g h ",
"i i i i i i i i i j k l m n o p i q r s ",
"t t t t t t t t u v w x t n y z i A B C ",
"D D D D D D D D D E F : G v H I t w J K ",
"L L L L L L L L M v N O P v N L G k } Q ",
"R R R R R R R R S T T M S U U V M W X o ",
"Y Y Y Y Y Y Y Y Z `  .P Z `  .R R ..w +.",
"@.@.@.@.@.@.@.@.@.#.$.P @.#.$.M %.n &.&.",
"*.*.*.*.*.*.*.*.=.m -.P =.m -.P ;.< v v ",
";.;.;.;.;.;.;.;.;.V >.G ;.P ,.R '.7 j T ",
").).).).).).).).!.*.u Z ;.@.O R ).P < < ",
"~.~.~.~.~.~.~.~.{.).].L !.{.R u ^.!.#.x ",
"~.~.~.~.~.~.~.~./.(.(.D {._.{.M {.(.!.4 ",
":.:.:.:.:.:.:.:.:.:.:.:.:.:.:.:.:.:.:.:."};
